<?xml version="1.0" standalone="no"?><!DOCTYPE svg PUBLIC "-//W3C//DTD SVG 1.1//EN" "http://www.w3.org/Graphics/SVG/1.1/DTD/svg11.dtd"><svg t="1597656650238" class="icon" viewBox="0 0 1024 1024" version="1.1" xmlns="http://www.w3.org/2000/svg" p-id="13552" xmlns:xlink="http://www.w3.org/1999/xlink" width="128" height="128"><defs><style type="text/css"></style></defs><path d="M853.12 92.8l-37.76 24.96a27.84 27.84 0 0 1-32 0l-64-43.52a27.84 27.84 0 0 0-32 0l-64 43.52a27.84 27.84 0 0 1-32 0l-64-43.52a27.84 27.84 0 0 0-32 0l-64 43.52a27.84 27.84 0 0 1-32 0l-64-43.52a27.84 27.84 0 0 0-32 0l-64 43.52a27.84 27.84 0 0 1-32 0L170.88 92.8A27.84 27.84 0 0 0 128 115.84v792.32a27.84 27.84 0 0 0 42.88 23.04l37.76-24.96a27.84 27.84 0 0 1 32 0l64 43.52a27.84 27.84 0 0 0 32 0l64-43.52a27.84 27.84 0 0 1 32 0l64 43.52a27.84 27.84 0 0 0 32 0l64-43.52a27.84 27.84 0 0 1 32 0l64 43.52a27.84 27.84 0 0 0 32 0l64-43.52a27.84 27.84 0 0 1 32 0l37.76 24.96a27.84 27.84 0 0 0 41.6-23.04V115.84a27.84 27.84 0 0 0-42.88-23.04zM576 712V736a48 48 0 0 1-96 0v-23.04a315.52 315.52 0 0 1-78.08-21.76 50.24 50.24 0 0 1-32-45.44 47.36 47.36 0 0 1 47.68-48.32 50.24 50.24 0 0 1 20.16 4.16 211.2 211.2 0 0 0 86.4 17.92c58.88 0 58.88-20.48 58.88-29.44 0-15.04-40.96-21.12-64-27.2-57.92-14.72-145.6-37.12-145.6-128A128 128 0 0 1 480 313.92V288a48 48 0 0 1 96 0v22.4a288 288 0 0 1 62.4 14.72 46.72 46.72 0 0 1 32 45.44 47.68 47.68 0 0 1-47.36 48.32 49.28 49.28 0 0 1-18.24-2.88 213.44 213.44 0 0 0-69.44-11.52c-27.84 0-60.48 7.68-60.48 28.8 0 14.4 19.84 21.44 67.2 32 56.64 13.44 142.4 34.24 142.4 128 0 59.84-44.48 104.32-108.48 118.72z" fill="#BFCBD9" p-id="13553"></path></svg>