<?xml version="1.0" standalone="no"?><!DOCTYPE svg PUBLIC "-//W3C//DTD SVG 1.1//EN" "http://www.w3.org/Graphics/SVG/1.1/DTD/svg11.dtd"><svg t="1573710743696" class="icon" viewBox="0 0 1024 1024" version="1.1" xmlns="http://www.w3.org/2000/svg" p-id="5699" xmlns:xlink="http://www.w3.org/1999/xlink" width="128" height="128"><defs><style type="text/css"></style></defs><path d="M940.48 738.4c-42.912-17.632-258.976-105.792-299.776-112-24.832-3.968-48.672 7.584-63.104 28.896-12.032 17.792-15.072 38.816-8.096 56.256 4.256 10.656 20.512 32.896 39.776 57.28-46.4-0.064-117.28-6.336-192.832-35.488-31.264-12.096-69.44-52.64-103.136-88.448-48-50.944-93.312-99.072-142.592-99.072-18.336 0-35.712 6.848-50.304 19.776-18.848 16.704-36.704 50.112-14.944 114.208 35.744 105.28 177.024 270.656 308.576 280.064 0 0 512.64 0.128 514.272 0.096 17.312-0.544 32-14.688 32-32l0-160C960.32 755.04 952.48 743.328 940.48 738.4z" p-id="5700"></path><path d="M524.864 64c-202.944 0-368 165.056-368 368 0 28.192 3.456 55.552 9.504 81.952 0.384 0 0.736-0.096 1.152-0.096 63.104 0 112.96 52.96 165.824 109.056 28.288 30.016 66.88 71.104 91.456 80.608 41.472 16 81.44 24.672 116.192 29.12-2.112-3.872-3.424-6.784-4.384-9.152-10.944-27.328-6.72-59.52 11.296-86.08 18.528-27.36 48.384-43.744 79.904-43.744 4.864 0 9.792 0.416 14.752 1.184 24.896 3.776 100.384 31.744 174.08 60.64 47.616-62.016 76.288-139.36 76.288-223.424C892.928 229.056 727.808 64 524.864 64zM636.928 321.568c17.696 0 32 14.336 32 32s-14.304 32-32 32l-64.064 0 0 32 64.064 0c17.696 0 32 14.336 32 32s-14.304 32-32 32l-64.064 0 0 64.192c0 17.696-14.304 32-32 32-17.664 0-32-14.304-32-32l0-64.192-64 0c-17.664 0-32-14.336-32-32s14.336-32 32-32l64 0 0-32-64 0c-17.664 0-32-14.336-32-32s14.336-32 32-32L496 321.568 421.984 247.68c-12.512-12.48-12.544-32.736-0.032-45.28 12.48-12.544 32.736-12.544 45.28-0.032l73.344 73.216 76.256-73.6c12.736-12.224 32.96-11.936 45.248 0.8 12.288 12.704 11.904 32.96-0.8 45.248l-76.16 73.504L636.928 321.536z" p-id="5701"></path></svg>